<?xml version="1.0" encoding="UTF-8"?>
<!DOCTYPE svg PUBLIC "-//W3C//DTD SVG 1.1//EN" "http://www.w3.org/Graphics/SVG/1.1/DTD/svg11.dtd">
<!-- Creator: CorelDRAW 2017 -->
<svg xmlns="http://www.w3.org/2000/svg" xml:space="preserve" width="841mm" height="841mm" version="1.1" style="shape-rendering:geometricPrecision; text-rendering:geometricPrecision; image-rendering:optimizeQuality; fill-rule:evenodd; clip-rule:evenodd"
viewBox="0 0 17509.39 17509.39"
 xmlns:xlink="http://www.w3.org/1999/xlink">
 <defs>
  <style type="text/css">
   <![CDATA[
    .fil1 {fill:none}
    .fil0 {fill:#231F20}
   ]]>
  </style>
 </defs>
 <g id="Layer_x0020_1">
  <metadata id="CorelCorpID_0Corel-Layer"/>
  <path class="fil0" d="M4537.76 9285.96c-249.9,-149.94 -1062.08,99.96 -1611.86,0l0 -1374.46c253.73,14.26 513.66,21.1 768.45,21.1 254.8,0 514.72,-6.84 767.81,-20.52 137.5,-262.5 259.88,-534.85 363.31,-812.38 131.91,-186.47 203.2,-409.32 203.2,-637.66 0,-62.69 -5.5,-125.65 -16.11,-187.4 -74.97,-187.43 -774.69,-774.69 -937.13,-999.61 250.39,-360.93 569.3,-671.48 937.12,-912.24 1249.5,1137.05 887.15,1112.06 1736.81,724.71 199.92,-87.47 537.29,-174.93 662.24,-249.9 349.86,-199.92 162.44,-1174.54 187.43,-1611.86l1399.47 0.11c0,274.89 0,524.79 0,762.2l0 574.77c74.97,374.85 362.35,312.38 724.71,462.32 362.36,149.94 487.31,324.87 762.2,262.4 274.89,-62.48 699.72,-587.27 1099.57,-974.62l849.66 837.17c52,7.22 105.05,10.87 157.68,10.87 189.04,0 375.42,-46.73 542,-135.85 -405.14,-555.51 -881.07,-1060.68 -1411.46,-1499.31 -224.91,-149.94 -499.8,237.41 -749.7,487.31 -249.9,249.9 -387.35,399.84 -587.27,574.77l-749.7 -274.89c-62.92,-1786.86 374.4,-1786.86 -1249.95,-1786.86 -229.13,-27.87 -462.34,-42.45 -693.47,-42.45 -231.13,0 -464.34,14.58 -693.39,42.34 -162.44,74.97 0,1124.55 0,1661.84 -267.54,125.83 -549.23,222.4 -837.44,287.44 -333.16,-371.46 -721.24,-692.41 -1149.59,-949.3 -324.87,0 -762.2,524.79 -987.11,762.2 -302.36,267.17 -563.81,579.54 -774.36,924.52 0,462.32 812.18,962.12 1049.58,1249.5l-299.88 724.71c-499.8,0 -1249.5,-137.45 -1636.85,124.95 -76.68,411.8 -116.37,830.16 -116.37,1249.35 0,419.18 39.69,837.54 116.58,1249.29 267.91,28.9 541.3,43.04 811.86,43.04 270.56,0 543.96,-14.14 812.64,-42.42l299.88 749.7c-1249.51,1249.5 -1386.95,1037.09 -474.81,1961.72 912.14,924.64 1087.07,1249.5 1611.86,724.71 712.22,-737.21 649.74,-974.61 1486.91,-487.31 274.89,74.97 462.32,-299.88 462.32,-299.88 0,0 -237.41,-312.38 -549.78,-437.33 -312.38,-124.95 -499.8,-312.38 -724.71,-287.39 -408.06,269.62 -771.96,603.52 -1075.31,986.67 -380.22,-251.72 -718.42,-565.1 -999.22,-924.51 -280.8,-359.4 962.12,-837.17 999.61,-1074.57 -117.82,-492.41 -281.66,-974.84 -486.97,-1437.04l-0.45 0.02z"/>
  <path class="fil0" d="M8423.72 11135.23c0,0 87.47,0 99.96,-312.38 12.49,-312.38 0,-274.89 0,-274.89 -76.35,8.86 -153.99,13.66 -231.15,13.66 -1083.89,0 -1962.89,-879 -1962.89,-1962.88 0,-994.5 744.08,-1832.28 1731.63,-1949.23 1037.09,-112.46 1249.51,324.87 1749.31,674.73 196.42,-88.71 339.98,-264.65 387.46,-474.82 -487.91,-546.88 -1187.11,-859.87 -1920.23,-859.87 -1421.33,0 -2573.98,1152.65 -2573.98,2573.98 0,1421.32 1152.65,2573.97 2573.98,2573.97 36.14,0 72.59,-0.94 108.41,-2.2l37.49 -0.08z"/>
  <path class="fil0" d="M12722.02 10023.17l0 0c110.16,17.16 221.79,25.86 333.42,25.86 1193.64,0 2161.64,-968 2161.64,-2161.64 0,-242.79 -41.17,-484 -121.13,-713.07l-112.46 0 -899.64 1149.54c55.77,72.52 -31.36,114.95 -123.51,114.95 -12.96,0 -25.96,-0.88 -38.81,-2.53l-887.15 -124.95c-106.07,-17.4 -195.84,-88.26 -237.41,-187.42l-337.37 -837.17c-25.19,-43.67 -38.49,-93.28 -38.49,-143.7 0,-50.42 13.3,-100.07 38.49,-143.71l912.14 -1174.53 0 -74.97c-79.96,65.97 -160.72,61.48 -241.21,61.48 -1193.64,0 -2161.64,968 -2161.64,2161.64 0,274.2 52.52,546.02 153.86,800.69l-0.1 0 -3848.48 4548.2c-102.87,163.38 -157.54,352.77 -157.54,545.9 0,565.77 458.82,1024.59 1024.59,1024.59 281.82,0 551.26,-116.21 744.77,-320.98l3836.02 -4548.21zm-5210.43 4085.88c-1.84,-15.3 -2.78,-30.91 -2.78,-46.38 0,-213.89 173.46,-387.35 387.35,-387.35 213.89,0 387.35,173.46 387.35,387.35 0,193.51 -142.86,357.41 -334.57,383.75 -17.45,2.36 -35.14,3.59 -52.77,3.59 -195.97,0 -361.1,-146.41 -384.56,-340.95l-0.01 -0.02z"/>
  <path class="fil0" d="M13984.02 6462.08l-437.33 0c-12.84,-1.64 -25.84,-2.52 -38.8,-2.52 -92.15,0 -179.28,42.43 -236.1,114.96l-274.89 349.86c-23.99,44.05 -36.66,93.52 -36.66,143.71 0,50.19 12.67,99.66 36.68,143.7l162.44 412.33c39.49,100.68 130.25,172.37 237.37,187.42l437.33 0c12.86,1.65 25.86,2.53 38.82,2.53 92.15,0 179.28,-42.43 236.1,-114.96l274.89 -349.86c23.99,-44.05 36.66,-93.52 36.66,-143.71 0,-50.19 -12.67,-99.66 -36.68,-143.7l-162.44 -412.33c-39.49,-100.68 -130.25,-172.37 -237.37,-187.42l-0.01 -0.01z"/>
  <rect class="fil1" width="17509.39" height="17509.39"/>
 </g>
</svg>
