<svg width="65" height="65" viewBox="0 0 65 65" fill="none" xmlns="http://www.w3.org/2000/svg">
<path d="M52.8125 0H12.1875C5.45898 0 0 5.45898 0 12.1875V52.8125C0 59.541 5.45898 65 12.1875 65H52.8125C59.541 65 65 59.541 65 52.8125V12.1875C65 5.45898 59.541 0 52.8125 0ZM20.0977 55.1758H10L9.94141 24.9414H20.0391L20.0977 55.1758ZM14.7949 20.9863H14.7363C11.4355 20.9863 9.30664 18.7109 9.30664 15.8789C9.30664 12.9785 11.5039 10.7812 14.8633 10.7812C18.2227 10.7812 20.2832 12.9785 20.3516 15.8789C20.3516 18.7109 18.2129 20.9863 14.7949 20.9863ZM55.1074 55.1758H44.9219V38.75C44.9219 34.7754 43.8672 32.0703 40.3125 32.0703C37.5977 32.0703 36.1328 33.8965 35.4297 35.6641C35.166 36.2988 35.0977 37.168 35.0977 38.0566V55.1758H24.8633L24.8047 24.9414H35.0391L35.0977 29.209C36.4062 27.1875 38.584 24.3262 43.7988 24.3262C50.2637 24.3262 55.0977 28.5449 55.0977 37.6172V55.1758H55.1074Z" fill="white"/>
</svg>
