<svg width="39" height="36" viewBox="0 0 39 36" fill="none" xmlns="http://www.w3.org/2000/svg">
<path d="M38.2635 0.494895C37.5983 -0.077507 36.5534 -0.159407 35.473 0.280694H35.4712C34.335 0.743296 3.30748 14.2469 2.04438 14.7986C1.81465 14.8796 -0.191763 15.6392 0.0149096 17.3312C0.199407 18.8568 1.81199 19.4886 2.0089 19.5615L9.89705 22.302C10.4204 24.0696 12.3496 30.591 12.7763 31.9842C13.0424 32.8527 13.4761 33.9939 14.2363 34.2288C14.9033 34.4898 15.5668 34.2513 15.9961 33.9093L20.8188 29.3706L28.604 35.5311L28.7894 35.6436C29.3181 35.8812 29.8246 36 30.308 36C30.6814 36 31.0398 35.9289 31.3821 35.7867C32.5486 35.3007 33.0151 34.173 33.0639 34.0452L38.8791 3.3758C39.2339 1.7378 38.7407 0.904396 38.2635 0.494895ZM16.8538 23.3982L14.1928 30.5982L11.5318 21.5982L31.933 6.29811L16.8538 23.3982Z" fill="white"/>
</svg>
