<svg width="55" height="51" viewBox="0 0 55 51" fill="none" xmlns="http://www.w3.org/2000/svg">
<path d="M53.9614 0.701101C53.0232 -0.109802 51.5497 -0.225827 50.026 0.39765H50.0235C48.4211 1.053 4.66439 20.1832 2.8831 20.9647C2.55912 21.0795 -0.270435 22.1556 0.0210263 24.5526C0.281215 26.7137 2.55536 27.6088 2.83307 27.7121L13.9574 31.5944C14.6954 34.0985 17.4161 43.3372 18.0178 45.3109C18.3931 46.5413 19.0048 48.158 20.0768 48.4908C21.0175 48.8605 21.9532 48.5227 22.5586 48.0382L29.3598 41.6083L40.339 50.3357L40.6005 50.4951C41.346 50.8317 42.0603 51 42.742 51C43.2686 51 43.774 50.8993 44.2569 50.6978C45.9018 50.0093 46.5598 48.4117 46.6286 48.2307L54.8295 4.78239C55.3299 2.46188 54.6344 1.28123 53.9614 0.701101ZM23.7682 33.1474L20.0155 43.3474L16.2628 30.5974L45.0337 8.92233L23.7682 33.1474Z" fill="white"/>
</svg>
