<svg width="65" height="64" viewBox="0 0 65 64" fill="none" xmlns="http://www.w3.org/2000/svg">
<path d="M50.5556 0H14.4444C6.4675 0 0 6.368 0 14.2222V49.7778C0 57.632 6.4675 64 14.4444 64H50.5556C58.5325 64 65 57.632 65 49.7778V14.2222C65 6.368 58.5325 0 50.5556 0ZM50.7361 23.1609C50.7361 23.4667 50.7361 23.7689 50.7361 24.3804C50.7361 35.9609 41.7589 49.3724 25.3536 49.3724C20.4028 49.3724 15.7589 47.8471 11.7361 45.4116C12.3536 45.4116 13.2853 45.4116 13.9028 45.4116C17.9256 45.4116 21.9519 43.8862 25.0467 41.7529C21.0239 41.7529 17.9292 39.0116 16.6906 35.6587C17.3081 35.6587 17.9292 35.9644 18.2397 35.9644C19.1678 35.9644 19.7889 35.9644 20.7169 35.6587C16.6942 34.7449 13.5994 31.392 13.5994 27.1253C14.8381 27.7333 16.0767 28.0391 17.6222 28.3449C15.145 26.2116 13.5994 23.7724 13.5994 20.7253C13.5994 19.2 13.91 17.6782 14.8381 16.4587C19.1714 21.6391 25.6714 25.2978 33.0994 25.6C33.0994 24.992 32.7889 24.3804 32.7889 23.4667C32.7889 18.592 36.8117 14.6276 41.7661 14.6276C44.2433 14.6276 46.7169 15.5413 48.2661 17.3689C50.4328 17.0631 52.2889 16.1493 53.8381 15.2356C53.2206 17.3689 51.6714 18.8942 49.8153 20.1102C51.6714 19.8044 53.2206 19.5022 55.0767 18.5849C53.8308 20.4196 52.2853 21.9413 50.7361 23.1609Z" fill="white"/>
</svg>
