<svg width="760" height="760" viewBox="0 0 760 760" fill="none" xmlns="http://www.w3.org/2000/svg">
<path d="M557 254L688 157L675 140.5L667.5 131.5L658.5 121.5L649 111.5L638 101L625 89.5L617 83L608 76L597 68L584.5 59.5L571 51.5L565 48L557.5 44L545 37.5L530.5 31L516 25L499.5 19L449.5 175.5L457 178L465.5 181.5L480.5 188.5L488 192.5L495.5 197L509 206L521.5 216L530 223.5L534 227.5L540 233.5L547.5 242L557 254Z" fill="#262626"/>
<path d="M314 174L262.5 18.5L247 24L233 29.5L219.5 35.5L206 42L179.5 57L167 65L155 73.5L143.5 82.5L132 92L121.5 101.5L111 111.5L101 122L91.5 132.5L82 144L72.5 156.5L203.5 253.5L215.5 238.5L227 227L239 215.5L253 204.5L267 195.5L275 191L281.5 187.5L284.5 186L289.5 183.5L298 180L305.5 177L314 174Z" fill="#262626"/>
<path d="M448 175L499 19L486 15L473 11.5L467 10L457.5 8L442 5L427.5 3L412 1.5L397.5 0.5L381.5 0H367.76L351.5 1L336 2.5L321 4.5L307 7L291 10.5L277.5 14L264 18L315.5 173.5L333.5 169L347.5 166.5L361.5 165L382.5 164L394 164.5L399.5 165L409 166L416 167L433 170.5L442 173L448 175Z" fill="#62A58F"/>
<path d="M499.5 741L450.5 590L430.5 596L417 598.5L401 601L384.5 601.5H369.5L356.5 600.5L337 597.782L329 596L323.5 594.5L320 593.5L276 745.388L303.5 752.5L332 757L359 759.5L388 759.888L401 759.5L418.5 758L431.5 756.5L444 754.5L458 752L473 748.5L499.5 741Z" fill="#262626"/>
<path d="M274 745L318.5 593L285 580.5L269.5 572L254 562L241 552L228 541L217 529L205 514.5L77 609.5L87 622L96.5 633L107 644.5L118.5 655.5L129.5 666L141 675.5L153.5 685L166 694L178 702L191.5 710L205 717.5L218 724L245.5 735.5L259.5 740.5L274 745Z" fill="#62A58F"/>
<path d="M599 382L760 381V370.5L759 353.5L758 340L756 323.5L750.5 295L747.5 282.5L742.5 265.5L738.5 253L733 238.5L727.5 225.5L720.5 211L714 198.5L706.5 185L698 172L692 163L688 157.5L557.5 255L564 264.5L569.5 273.5L574.5 282.5L578.5 290.5L584 303L588 314.5L591.5 326.5L593.5 334.5L596.5 349.5L598 362L598.5 368L599 382Z" fill="#62A58F"/>
<path d="M203 254L72 157.5L63 170.5L54.5 184L46.5 198L39 212.5L32.5 226L27 239.5L21.5 253.5L17 267.5L13 281.5L9.49999 296L6.49999 310.5L3.70076 325L0.700765 353.5L0 383H161L162 366L163.5 349L167.5 330.5L171.5 315.5L177.5 299.5L184.5 284L193.5 268.5L203 254Z" fill="#62A58F"/>
<path d="M76 608L204 513.5L194.5 499.5L186 485L178.5 469L172 451.5L167.5 436L164 420L162 403L161 385H0L0.5 400L2 416.5L3.5 433L6 447L9 462.5L12.5 477.5L21 505.5L32 533L39 548L45 559.5L52.5 573L60 585L68 597L76 608Z" fill="#262626"/>
<path d="M760 382.5L598.5 384L598 402L596 418.5L592.5 435L588.5 450L582.5 466.5L576 480.5L568.5 494.5L560.5 507L593 530.5L625.5 553.5L690 600L696.5 590.5L702.5 581L708 572L712 565L716 557.5L720 550L723 543.5L725.5 538.5L730 528L732.5 522.5L735.5 514.5L738.5 506.5L741.5 497.5L745.5 484.5L748.5 473L750 467L752 458L753.5 450.5L755 441.5L755.5 438.5L756.5 431.5L757.5 424L758.5 414.5L759 408L759.5 399L760 391.5V382.5Z" fill="#262626"/>
<path d="M689.5 601L559.5 508.5L549.5 521.5L538 534.5L525 547L511 558.5L484.5 575.5L468.5 583.5L451.5 590L501 740.5L514.5 735.5L527 730.5L539.5 725L553 718.5L579.5 703.5L593.5 694.5L606 685.5L611.5 681.5L617 677L622.5 672.5L629.5 666.5L638.5 658.5L651.5 646L661.5 635.5L670.5 625L689.5 601Z" fill="#62A58F"/>
</svg>
