<svg width="37" height="37" viewBox="0 0 37 37" fill="none" xmlns="http://www.w3.org/2000/svg">
<path d="M31.594 5.4168C28.1047 1.92585 23.4647 0.00185 18.5213 0C8.33466 0 0.0444023 8.28615 0.0407022 18.4722C0.0388521 21.7283 0.889894 24.9065 2.50687 27.7074L0 37L9.68153 34.7116C12.3808 36.1842 15.4187 36.9593 18.512 36.9612H18.5194C28.7042 36.9612 36.9944 28.6732 37 18.4889C37.0037 13.5513 35.0833 8.9096 31.594 5.4168ZM27.5627 25.0749C27.1779 26.1535 25.2926 27.1931 24.4453 27.269C23.5979 27.3467 22.8042 27.6519 18.9042 26.1146C14.2106 24.2646 11.2467 19.4527 11.0173 19.1457C10.786 18.8367 9.13205 16.6426 9.13205 14.3708C9.13205 12.099 10.3254 10.9816 10.749 10.5209C11.1727 10.0584 11.6722 9.94375 11.9812 9.94375C12.2883 9.94375 12.5973 9.94375 12.8655 9.95485C13.1949 9.9678 13.5593 9.98445 13.9053 10.7522C14.316 11.6661 15.2133 13.949 15.328 14.1803C15.4427 14.4115 15.5204 14.6816 15.3669 14.9887C15.2133 15.2958 15.1356 15.4882 14.9062 15.7583C14.6749 16.0284 14.4215 16.3596 14.2143 16.5667C13.983 16.7962 13.7425 17.0478 14.0107 17.5084C14.2809 17.9709 15.2059 19.4824 16.5787 20.7052C18.3437 22.2777 19.8293 22.7642 20.2918 22.9974C20.7543 23.2286 21.0226 23.1898 21.2927 22.8808C21.5628 22.5737 22.4472 21.534 22.7543 21.0715C23.0614 20.609 23.3704 20.6867 23.794 20.8403C24.2177 20.9938 26.4878 22.1112 26.9484 22.3424C27.411 22.5737 27.7181 22.6884 27.8328 22.8808C27.9475 23.0714 27.9475 23.9963 27.5627 25.0749Z" fill="white"/>
</svg>
