<svg width="53" height="53" viewBox="0 0 53 53" fill="none" xmlns="http://www.w3.org/2000/svg">
<path d="M45.2563 7.7592C40.2582 2.75865 33.6116 0.00265 26.5305 0C11.9388 0 0.0636034 11.8693 0.0583031 26.4603C0.055653 31.1243 1.27471 35.6769 3.59093 39.689L0 53L13.8681 49.722C17.7347 51.8314 22.0862 52.9417 26.5172 52.9444H26.5278C41.1168 52.9444 52.992 41.0724 53 26.4841C53.0053 19.4113 50.2545 12.7624 45.2563 7.7592ZM39.4817 35.9181C38.9304 37.4631 36.23 38.9524 35.0162 39.061C33.8024 39.1723 32.6655 39.6096 27.0791 37.4074C20.3557 34.7574 16.1102 27.8648 15.7815 27.4249C15.4503 26.9823 13.0811 23.8394 13.0811 20.5852C13.0811 17.331 14.7904 15.7304 15.3973 15.0705C16.0041 14.408 16.7197 14.2438 17.1623 14.2438C17.6022 14.2438 18.0448 14.2438 18.429 14.2597C18.9007 14.2782 19.4228 14.302 19.9184 15.4018C20.5067 16.7109 21.792 19.981 21.9563 20.3123C22.1207 20.6435 22.232 21.0304 22.012 21.4703C21.792 21.9102 21.6807 22.1858 21.3521 22.5727C21.0208 22.9596 20.6578 23.434 20.361 23.7308C20.0297 24.0594 19.6852 24.4198 20.0694 25.0796C20.4564 25.7421 21.7814 27.9072 23.7478 29.6588C26.2761 31.9113 28.4041 32.6082 29.0666 32.9422C29.7292 33.2734 30.1134 33.2178 30.5004 32.7752C30.8873 32.3353 32.154 30.846 32.594 30.1835C33.0339 29.521 33.4765 29.6323 34.0833 29.8523C34.6902 30.0722 37.9419 31.6728 38.6018 32.0041C39.2644 32.3353 39.7043 32.4996 39.8686 32.7752C40.0329 33.0482 40.0329 34.3731 39.4817 35.9181Z" fill="white"/>
</svg>
